<?xml version="1.0" standalone="no"?>
<!DOCTYPE svg PUBLIC "-//W3C//DTD SVG 20010904//EN"
 "http://www.w3.org/TR/2001/REC-SVG-20010904/DTD/svg10.dtd">
<svg version="1.0" xmlns="http://www.w3.org/2000/svg"
 width="1100.000000pt" height="1100.000000pt" viewBox="0 0 1100.000000 1100.000000"
 preserveAspectRatio="xMidYMid meet">
<metadata>
Created by potrace 1.11, written by Peter Selinger 2001-2013
</metadata>
<g transform="translate(0.000000,1100.000000) scale(0.100000,-0.100000)"
fill="#000000" stroke="none">
<path d="M6230 10132 c-19 -9 -47 -35 -63 -57 -52 -76 -57 -116 -57 -506 l0
-356 -1252 -7 c-873 -5 -1264 -10 -1291 -18 -89 -27 -158 -124 -158 -226 -1
-69 16 -114 60 -165 65 -74 46 -71 536 -77 436 -5 440 -5 487 -28 27 -13 64
-42 83 -65 l35 -41 0 -122 0 -122 -37 -39 c-21 -22 -58 -51 -83 -64 l-45 -23
-1170 -1 -1170 -1 -48 -22 c-93 -41 -141 -114 -141 -217 -1 -107 46 -180 144
-224 44 -20 63 -21 701 -21 742 0 727 1 806 -73 124 -118 95 -318 -57 -399
l-45 -23 -1245 -5 -1245 -5 -40 -22 c-52 -28 -89 -68 -114 -123 -52 -114 -1
-251 114 -313 l40 -22 1105 -5 1105 -5 47 -28 c85 -50 133 -140 125 -232 -6
-62 -13 -79 -49 -131 -30 -42 -84 -78 -140 -95 -17 -5 -264 -9 -547 -9 -495
-1 -518 -2 -561 -21 -191 -86 -199 -344 -12 -436 l57 -28 816 -1 817 0 55 -28
c57 -28 107 -80 128 -132 6 -16 11 -56 12 -89 1 -103 -56 -191 -148 -231 -36
-16 -95 -18 -658 -19 l-617 -2 -57 -29 c-175 -90 -177 -339 -4 -426 l55 -28
249 0 c262 0 301 -5 369 -47 73 -45 110 -115 110 -208 0 -105 -52 -185 -144
-226 l-53 -23 -780 -1 c-683 -2 -784 -4 -815 -18 -90 -40 -140 -109 -148 -204
-6 -77 13 -133 63 -185 74 -79 -17 -72 1090 -78 l990 -5 41 -22 c157 -84 191
-277 69 -398 -72 -73 -88 -75 -514 -76 -350 0 -375 -1 -419 -20 -62 -27 -99
-63 -128 -124 -60 -126 2 -276 133 -325 52 -19 79 -20 941 -20 845 0 889 -1
927 -19 44 -21 96 -66 114 -99 6 -12 11 -70 11 -136 l0 -116 -37 -41 c-20 -22
-55 -50 -77 -62 -41 -22 -47 -22 -681 -27 l-640 -5 -45 -26 c-57 -34 -74 -53
-101 -113 -39 -89 -20 -204 45 -268 16 -15 49 -37 74 -50 l47 -23 845 -2 c465
-1 1121 -3 1458 -3 l612 0 0 -357 c0 -216 4 -374 11 -398 24 -93 64 -148 124
-171 40 -15 53 -15 100 -5 31 7 80 30 112 51 65 43 4151 4112 4207 4189 94
129 129 238 130 396 0 125 -15 187 -71 305 -36 74 -75 113 -2087 2128 -1128
1129 -2081 2077 -2117 2107 -117 97 -213 126 -289 87z m-102 -3017 c212 -32
409 -107 598 -230 76 -50 83 -57 104 -112 70 -182 -19 -341 -209 -374 l-58
-11 -152 76 c-206 104 -305 130 -496 130 -162 1 -242 -15 -371 -74 -109 -50
-185 -103 -287 -200 -100 -95 -147 -161 -200 -285 -66 -153 -81 -228 -81 -400
1 -181 19 -259 94 -410 62 -125 162 -244 285 -337 321 -245 708 -259 1095 -39
73 42 77 43 150 39 154 -9 251 -102 254 -242 1 -89 -23 -144 -96 -211 -95 -88
-308 -184 -523 -235 -235 -56 -550 -42 -784 36 -234 78 -474 244 -657 455
-188 215 -311 500 -345 798 -23 203 1 435 66 628 152 456 556 833 1030 964
182 50 397 62 583 34z m1854 1 c211 -40 400 -178 540 -394 93 -141 123 -255
123 -462 0 -135 -3 -165 -23 -230 -56 -177 -170 -336 -319 -443 l-43 -30 21
-36 c102 -171 538 -940 562 -989 26 -55 29 -72 25 -126 -10 -116 -71 -190
-188 -227 -100 -31 -162 -15 -246 63 -45 41 -106 131 -144 209 -11 24 -141
249 -288 499 l-269 455 -111 3 -112 3 0 -518 c0 -348 -4 -531 -11 -558 -29
-103 -179 -187 -297 -165 -96 17 -155 69 -193 170 -18 49 -19 90 -19 1303 0
1383 -3 1312 63 1398 17 23 52 53 76 66 44 23 46 23 412 23 275 0 386 -4 441
-14z"/>
<path d="M7510 6275 l0 -337 198 4 c197 3 197 3 250 33 66 36 96 70 136 155
28 58 31 75 31 155 0 81 -3 95 -30 144 -31 56 -96 115 -169 154 -37 20 -59 22
-228 25 l-188 4 0 -337z"/>
<path d="M2396 9190 c-131 -40 -202 -205 -142 -332 54 -113 134 -146 349 -142
94 2 115 6 162 28 92 46 141 131 132 233 -8 100 -66 177 -160 212 -33 13 -299
13 -341 1z"/>
<path d="M911 6229 c-63 -19 -118 -65 -147 -124 -23 -49 -26 -64 -22 -125 6
-79 32 -130 93 -176 53 -40 113 -51 255 -49 100 1 134 6 170 22 184 82 197
328 22 430 -45 27 -54 28 -192 30 -80 1 -160 -2 -179 -8z"/>
<path d="M385 5243 c-37 -7 -118 -77 -142 -122 -31 -59 -32 -156 -2 -218 71
-146 278 -178 391 -59 63 67 82 192 40 272 -26 52 -94 111 -141 124 -35 10
-106 11 -146 3z"/>
<path d="M1276 5243 c-38 -10 -96 -54 -125 -94 -94 -128 -33 -317 118 -368 42
-14 431 -15 482 -1 47 13 115 72 141 124 29 57 29 156 0 212 -26 52 -94 111
-141 124 -36 10 -438 12 -475 3z"/>
<path d="M1459 3267 c-127 -47 -192 -153 -169 -276 18 -98 91 -171 191 -192
80 -17 285 -7 333 16 154 74 187 272 67 392 -57 57 -92 67 -246 70 -98 2 -151
-1 -176 -10z"/>
</g>
</svg>
